<svg id="visual" viewBox="0 0 900 600" width="900" height="600" xmlns="http://www.w3.org/2000/svg" xmlns:xlink="http://www.w3.org/1999/xlink" version="1.1"><rect x="0" y="0" width="900" height="600" fill="#ffffff"></rect><defs><linearGradient id="grad1_0" x1="33.3%" y1="100%" x2="100%" y2="0%"><stop offset="20%" stop-color="#ffffff" stop-opacity="1"></stop><stop offset="80%" stop-color="#ffffff" stop-opacity="1"></stop></linearGradient></defs><defs><linearGradient id="grad2_0" x1="0%" y1="100%" x2="66.7%" y2="0%"><stop offset="20%" stop-color="#ffffff" stop-opacity="1"></stop><stop offset="80%" stop-color="#ffffff" stop-opacity="1"></stop></linearGradient></defs><g transform="translate(900, 600)"><path d="M-351.5 0C-354.1 -40.7 -356.7 -81.5 -334.3 -108.6C-312 -135.8 -264.7 -149.4 -237 -172.2C-209.4 -195 -201.3 -227 -181.6 -250C-161.9 -273 -130.5 -287 -98.3 -302.4C-66 -317.9 -33 -334.7 0 -351.5L0 0Z" fill="#ebf3fa"></path></g><g transform="translate(0, 0)"><path d="M351.5 0C356 42.7 360.4 85.4 334.3 108.6C308.3 131.9 251.8 135.6 229 166.3C206.1 197.1 216.8 254.8 196.3 270.2C175.8 285.7 124.1 258.8 86.2 265.3C48.3 271.9 24.1 311.7 0 351.5L0 0Z" fill="#ebf3fa"></path></g></svg>