<svg id="visual" viewBox="0 0 900 200" width="900" height="200" xmlns="http://www.w3.org/2000/svg" xmlns:xlink="http://www.w3.org/1999/xlink" version="1.1"><rect x="0" y="0" width="900" height="200" fill="#ffffff"></rect><path d="M0 112L15 104.2C30 96.3 60 80.7 90 84.7C120 88.7 150 112.3 180 116.2C210 120 240 104 270 103.7C300 103.3 330 118.7 360 124.8C390 131 420 128 450 121.8C480 115.7 510 106.3 540 108C570 109.7 600 122.3 630 129.2C660 136 690 137 720 131C750 125 780 112 810 104.3C840 96.7 870 94.3 885 93.2L900 92L900 201L885 201C870 201 840 201 810 201C780 201 750 201 720 201C690 201 660 201 630 201C600 201 570 201 540 201C510 201 480 201 450 201C420 201 390 201 360 201C330 201 300 201 270 201C240 201 210 201 180 201C150 201 120 201 90 201C60 201 30 201 15 201L0 201Z" fill="#253a62" stroke-linecap="round" stroke-linejoin="miter"></path></svg>